<svg id="Icons" height="512" viewBox="0 0 74 74" width="512" xmlns="http://www.w3.org/2000/svg"><path d="m37 72a35 35 0 1 1 35-35 35.04 35.04 0 0 1 -35 35zm0-68a33 33 0 1 0 33 33 33.038 33.038 0 0 0 -33-33z"/><path d="m22.231 15.93a1 1 0 0 1 -.551-1.83 27.988 27.988 0 0 1 2.655-1.555 1 1 0 1 1 .91 1.781 25.986 25.986 0 0 0 -2.465 1.444.99.99 0 0 1 -.549.16z"/><path d="m37 64.56a27.586 27.586 0 0 1 -27.56-27.56 27.125 27.125 0 0 1 1-7.319 1 1 0 1 1 1.926.539 25.46 25.46 0 0 0 3.561 21.223 25.553 25.553 0 1 0 15.761-39.443 1 1 0 0 1 -.417-1.956 27.559 27.559 0 1 1 5.729 54.516z"/><path d="m14.979 23.17a1 1 0 0 1 -.831-1.555 25.364 25.364 0 0 1 1.989-2.593 1 1 0 0 1 1.507 1.316 23.186 23.186 0 0 0 -1.832 2.387 1 1 0 0 1 -.833.445z"/><path d="m58.9 53.01a1 1 0 0 1 -.828-.437 25.469 25.469 0 0 0 -13.364-9.939 10.511 10.511 0 0 1 -15.418 0 25.469 25.469 0 0 0 -13.364 9.939 1 1 0 0 1 -1.654-1.126 27.474 27.474 0 0 1 15.072-10.918 1 1 0 0 1 1.05.328 8.514 8.514 0 0 0 13.212 0 1 1 0 0 1 1.05-.328 27.474 27.474 0 0 1 15.071 10.918 1 1 0 0 1 -.264 1.389.99.99 0 0 1 -.563.174z"/><path d="m37 41c-5.51 0-9.947-6.594-9.947-12.053a9.947 9.947 0 0 1 19.894 0c0 5.459-4.437 12.053-9.947 12.053zm0-20a7.956 7.956 0 0 0 -7.947 7.947c0 4.526 3.667 10.053 7.947 10.053s7.947-5.527 7.947-10.053a7.956 7.956 0 0 0 -7.947-7.947z"/></svg>