<svg id="Icons" height="512" viewBox="0 0 74 74" width="512" xmlns="http://www.w3.org/2000/svg"><path d="m40.654 72h-7.308a1.99 1.99 0 0 1 -1.975-1.687l-.712-4.483a29.07 29.07 0 0 1 -9.559-3.958l-3.686 2.662a1.993 1.993 0 0 1 -2.587-.208l-5.154-5.156a1.994 1.994 0 0 1 -.207-2.585l2.662-3.685a29.059 29.059 0 0 1 -3.958-9.559l-4.484-.712a1.991 1.991 0 0 1 -1.686-1.975v-7.308a1.991 1.991 0 0 1 1.686-1.975l4.484-.712a29.059 29.059 0 0 1 3.958-9.559l-2.662-3.685a1.993 1.993 0 0 1 .206-2.584l5.158-5.158a1.992 1.992 0 0 1 2.585-.207l3.685 2.662a29.07 29.07 0 0 1 9.559-3.958l.712-4.483a1.99 1.99 0 0 1 1.975-1.687h7.308a1.99 1.99 0 0 1 1.975 1.687l.712 4.483a29.07 29.07 0 0 1 9.559 3.958l3.686-2.662a1.993 1.993 0 0 1 2.587.208l5.156 5.156a1.994 1.994 0 0 1 .207 2.585l-2.664 3.685a29.059 29.059 0 0 1 3.958 9.558l4.484.712a1.991 1.991 0 0 1 1.686 1.976v7.308a1.991 1.991 0 0 1 -1.686 1.975l-4.484.712a29.059 29.059 0 0 1 -3.958 9.559l2.662 3.686a1.993 1.993 0 0 1 -.206 2.584l-5.158 5.157a1.992 1.992 0 0 1 -2.585.207l-3.685-2.662a29.07 29.07 0 0 1 -9.557 3.958l-.712 4.483a1.99 1.99 0 0 1 -1.977 1.687zm-19.579-12.343a.993.993 0 0 1 .56.172 27.1 27.1 0 0 0 10.093 4.179 1 1 0 0 1 .8.825l.818 5.167h7.308l.821-5.167a1 1 0 0 1 .8-.825 27.1 27.1 0 0 0 10.093-4.179 1 1 0 0 1 1.146.018l4.245 3.066 5.157-5.157-3.066-4.245a1 1 0 0 1 -.019-1.145 27.1 27.1 0 0 0 4.179-10.093 1 1 0 0 1 .825-.8l5.165-.819v-7.308l-5.168-.82a1 1 0 0 1 -.825-.8 27.1 27.1 0 0 0 -4.179-10.093 1 1 0 0 1 .019-1.145l3.066-4.245-5.157-5.157-4.245 3.066a1 1 0 0 1 -1.146.018 27.1 27.1 0 0 0 -10.093-4.178 1 1 0 0 1 -.8-.825l-.818-5.167h-7.308l-.821 5.167a1 1 0 0 1 -.8.825 27.1 27.1 0 0 0 -10.093 4.179 1 1 0 0 1 -1.146-.018l-4.245-3.066-5.157 5.157 3.066 4.245a1 1 0 0 1 .019 1.145 27.1 27.1 0 0 0 -4.176 10.093 1 1 0 0 1 -.825.8l-5.168.819v7.308l5.168.82a1 1 0 0 1 .825.8 27.1 27.1 0 0 0 4.179 10.093 1 1 0 0 1 -.019 1.145l-3.066 4.245 5.157 5.157 4.245-3.066a1 1 0 0 1 .586-.191z"/><path d="m44.02 55.65a1 1 0 0 1 -.358-1.934 16.866 16.866 0 0 0 2.531-1.238 1 1 0 1 1 1.014 1.722 18.912 18.912 0 0 1 -2.83 1.382.993.993 0 0 1 -.357.068z"/><path d="m36.051 56.98h-.051a20 20 0 1 1 21-19.98c0 .311-.01.622-.021.933a1 1 0 0 1 -1 .972h-.016a1 1 0 0 1 -.984-1c.01-.331.02-.621.02-.91a18 18 0 1 0 -18.899 17.986 1 1 0 0 1 -.049 2z"/><path d="m51.949 49.71a1 1 0 0 1 -.779-1.626 16.48 16.48 0 0 0 1.621-2.452 1 1 0 0 1 1.758.955 18.565 18.565 0 0 1 -1.819 2.748 1 1 0 0 1 -.781.375z"/></svg>